<svg xmlns="http://www.w3.org/2000/svg" xmlns:xlink="http://www.w3.org/1999/xlink" viewBox="0 0 533.54 533.21"><defs><style>.a328a7f8-c1ea-4acd-9b11-cc1d389465e5{fill:url(#aaad53d3-f31a-49eb-8e76-8610cd8ad255);}</style><linearGradient id="aaad53d3-f31a-49eb-8e76-8610cd8ad255" x1="266.84" y1="50.89" x2="266.84" y2="484.38" gradientUnits="userSpaceOnUse"><stop offset="0" stop-color="#d0c6f5"/><stop offset="1" stop-color="#eabcaa"/><stop offset="1" stop-color="#ded6f8"/></linearGradient></defs><g id="ac568c6e-868d-4a3e-adb3-cc776ff68eb6" data-name="Layer 2"><g id="ee8bc3b8-c694-475d-93d0-8d960c91633e" data-name="Layer 1"><path d="M510.57,101.59c0,17.62-.06,35.25.06,52.87a19.43,19.43,0,0,0,1.51,7.21q28,66.39,19.32,137.87C517.68,412,433.17,504.2,322.78,527.35,182.4,556.8,45.44,472.62,8.92,333.88-6.29,276.1-1.84,219.29,20.68,163.9a23,23,0,0,0,1.73-8.29c.27-35.12.32-70.25.58-105.37C23.17,26.17,37.41,7.82,59.7,2.64A45.14,45.14,0,0,1,87.61,5q27.57,11.22,55.08,22.55a7.38,7.38,0,0,0,6.69-.29Q223.6-8.78,305.34,2.8a259.46,259.46,0,0,1,79,24.47,6.84,6.84,0,0,0,6.3.13c18.23-7.52,36.44-15.07,54.76-22.35,28.09-11.17,58.31,5.41,63.73,35.11,1.09,6,.89,12.2.94,18.31.12,14.37,0,28.75,0,43.12Zm-49.14-50.7c-9.94,4.3-18.78,8.3-27.76,12-17.88,7.3-35.89,14.28-53.75,21.63q-54.27,22.32-108.41,45a10.15,10.15,0,0,1-8.79,0c-8.53-3.77-17.16-7.34-25.8-10.87q-80.49-32.88-161-65.68c-1.21-.49-2.46-.88-4.22-1.51,0,1.83,0,3.05,0,4.26C71.5,93.75,71.34,131.87,71,170a21.17,21.17,0,0,1-2,7.78c-2.2,5.16-5.18,10-7.06,15.29-14.72,41.35-17.14,83.47-6.39,126.05,29,115,142.23,185.19,258.21,160.25C409.88,458.68,481.46,373,484.67,274.7A221.3,221.3,0,0,0,465.15,176,34.61,34.61,0,0,1,462,162.79c-.41-32-.44-64-.58-96C461.41,61.86,461.43,56.9,461.43,50.89Z"/><path class="a328a7f8-c1ea-4acd-9b11-cc1d389465e5" d="M461.43,50.89c0,6,0,11,0,15.92.14,32,.17,64,.58,96A34.61,34.61,0,0,0,465.15,176a221.3,221.3,0,0,1,19.52,98.69c-3.21,98.3-74.79,184-170.94,204.66-116,24.94-229.17-45.21-258.21-160.25-10.75-42.58-8.33-84.7,6.39-126,1.88-5.27,4.86-10.13,7.06-15.29A21.17,21.17,0,0,0,71,170c.34-38.12.5-76.24.71-114.36,0-1.21,0-2.43,0-4.26,1.76.63,3,1,4.22,1.51q80.51,32.82,161,65.68c8.64,3.53,17.27,7.1,25.8,10.87a10.15,10.15,0,0,0,8.79,0q54.14-22.62,108.41-44.95c17.86-7.35,35.87-14.33,53.75-21.63C442.65,59.19,451.49,55.19,461.43,50.89ZM267.16,312.62c-29.52-.15-53.7,23.18-53.88,52-.19,29.16,23.68,53,53.18,53.15,29.71.13,54-23.31,54.07-52.25C320.63,336.32,296.88,312.78,267.16,312.62ZM162,282.75a37.5,37.5,0,1,0-37.23-38.05A37.56,37.56,0,0,0,162,282.75Zm210.1,0a37.5,37.5,0,1,0-37.31-38A37.54,37.54,0,0,0,372.1,282.75Z"/><path d="M267.16,312.62c29.72.16,53.47,23.7,53.37,52.89-.11,28.94-24.36,52.38-54.07,52.25-29.5-.14-53.37-24-53.18-53.15C213.46,335.8,237.64,312.47,267.16,312.62Z"/><path d="M162,282.75a37.5,37.5,0,1,1,37.77-37.14A37.53,37.53,0,0,1,162,282.75Z"/><path d="M372.1,282.75a37.5,37.5,0,1,1,37.69-37.22A37.53,37.53,0,0,1,372.1,282.75Z"/></g></g></svg>